<svg width="0" height="0" class="hidden"><symbol xmlns="http://www.w3.org/2000/svg" id="check" viewBox="0 0 9 9"><path d="M3.38092 6.89686C3.28042 6.89686 3.17991 6.8584 3.10335 6.78183L0.698546 4.37696C0.544983 4.22347 0.544983 3.9753 0.698546 3.82181C0.852036 3.66832 1.10014 3.66832 1.2537 3.82181L3.38092 5.94903L7.91309 1.41694C8.06658 1.26345 8.31468 1.26345 8.46825 1.41694C8.62174 1.5705 8.62174 1.8186 8.46825 1.97216L3.65857 6.78183C3.58201 6.8584 3.48143 6.89686 3.38092 6.89686Z"/></symbol><symbol xmlns="http://www.w3.org/2000/svg" id="heart" viewBox="0 0 12 13"><path d="M11.048 2.20105C10.4268 1.52731 9.57449 1.15625 8.6478 1.15625C7.95511 1.15625 7.32074 1.37524 6.76227 1.8071C6.48047 2.02509 6.22513 2.29178 6 2.60306C5.77496 2.29187 5.51953 2.02509 5.23764 1.8071C4.67926 1.37524 4.04489 1.15625 3.3522 1.15625C2.42551 1.15625 1.57306 1.52731 0.951874 2.20105C0.338104 2.86691 0 3.77658 0 4.7626C0 5.77747 0.378204 6.70645 1.19019 7.68625C1.91656 8.56268 2.96054 9.45239 4.16949 10.4826C4.58231 10.8345 5.05023 11.2333 5.5361 11.6581C5.66446 11.7705 5.82916 11.8324 6 11.8324C6.17075 11.8324 6.33554 11.7705 6.46371 11.6583C6.94958 11.2334 7.41779 10.8344 7.83078 10.4824C9.03955 9.4523 10.0835 8.56268 10.8099 7.68616C11.6219 6.70645 12 5.77747 12 4.76251C12 3.77658 11.6619 2.86691 11.048 2.20105Z"/></symbol><symbol xmlns="http://www.w3.org/2000/svg" id="close" viewBox="0 0 24 24"><path d="M14.1988 12.0198L23.5439 2.67443C24.1521 2.06655 24.1521 1.08369 23.5439 0.475808C22.936 -0.132073 21.9532 -0.132073 21.3453 0.475808L11.9999 9.82122L2.65475 0.475808C2.04658 -0.132073 1.06401 -0.132073 0.456124 0.475808C-0.152041 1.08369 -0.152041 2.06655 0.456124 2.67443L9.80126 12.0198L0.456124 21.3652C-0.152041 21.9731 -0.152041 22.956 0.456124 23.5639C0.759068 23.8671 1.15739 24.0194 1.55543 24.0194C1.95348 24.0194 2.35152 23.8671 2.65475 23.5639L11.9999 14.2185L21.3453 23.5639C21.6485 23.8671 22.0466 24.0194 22.4446 24.0194C22.8427 24.0194 23.2407 23.8671 23.5439 23.5639C24.1521 22.956 24.1521 21.9731 23.5439 21.3652L14.1988 12.0198Z"/></symbol><symbol xmlns="http://www.w3.org/2000/svg" id="menu" viewBox="0 0 30 30"><path d="M28.75 16.2241H1.25C0.559998 16.2241 0 15.6641 0 14.9741C0 14.2841 0.559998 13.7241 1.25 13.7241H28.75C29.44 13.7241 30 14.2841 30 14.9741C30 15.6641 29.44 16.2241 28.75 16.2241Z"/><path d="M28.75 6.64062H1.25C0.559998 6.64062 0 6.08063 0 5.39062C0 4.70062 0.559998 4.14062 1.25 4.14062H28.75C29.44 4.14062 30 4.70062 30 5.39062C30 6.08063 29.44 6.64062 28.75 6.64062Z"/><path d="M28.75 25.8071H1.25C0.559998 25.8071 0 25.2471 0 24.5571C0 23.8671 0.559998 23.3071 1.25 23.3071H28.75C29.44 23.3071 30 23.8671 30 24.5571C30 25.2471 29.44 25.8071 28.75 25.8071Z"/></symbol><symbol xmlns="http://www.w3.org/2000/svg" id="instagram" viewBox="0 0 25 25"><path d="M24.9755 7.35007C24.917 6.02172 24.7022 5.1085 24.3945 4.31717C24.077 3.4772 23.5886 2.72518 22.9488 2.10002C22.3236 1.46513 21.5666 0.971793 20.7364 0.659308C19.9405 0.351593 19.032 0.136784 17.7037 0.0782166C16.3654 0.0146894 15.9406 0 12.5464 0C9.15216 0 8.72731 0.0146894 7.394 0.0732565C6.06566 0.131824 5.15244 0.346824 4.3613 0.654348C3.52114 0.971793 2.76912 1.46017 2.14396 2.10002C1.50907 2.72518 1.01593 3.48216 0.703253 4.3124C0.395538 5.1085 0.180729 6.01676 0.122162 7.34511C0.0586347 8.68338 0.0439453 9.10822 0.0439453 12.5024C0.0439453 15.8967 0.0586347 16.3215 0.117202 17.6548C0.175769 18.9832 0.390769 19.8964 0.698484 20.6877C1.01593 21.5277 1.50907 22.2797 2.14396 22.9049C2.76912 23.5398 3.5261 24.0331 4.35634 24.3456C5.15244 24.6533 6.0607 24.8681 7.38924 24.9267C8.72235 24.9854 9.14739 24.9999 12.5416 24.9999C15.9358 24.9999 16.3607 24.9854 17.694 24.9267C19.0223 24.8681 19.9355 24.6533 20.7267 24.3456C22.4068 23.696 23.7351 22.3677 24.3847 20.6877C24.6922 19.8916 24.9072 18.9832 24.9658 17.6548C25.0244 16.3215 25.0391 15.8967 25.0391 12.5024C25.0391 9.10822 25.0341 8.68338 24.9755 7.35007ZM22.7242 17.5571C22.6704 18.7781 22.4654 19.4374 22.2944 19.8769C21.8744 20.966 21.01 21.8304 19.9209 22.2505C19.4813 22.4214 18.8172 22.6265 17.6011 22.6801C16.2824 22.7389 15.887 22.7534 12.5513 22.7534C9.21569 22.7534 8.81526 22.7389 7.50141 22.6801C6.28047 22.6265 5.62116 22.4214 5.18162 22.2505C4.63964 22.0502 4.1463 21.7328 3.74587 21.3176C3.33075 20.9123 3.01331 20.4239 2.813 19.8819C2.64207 19.4424 2.43699 18.7781 2.38338 17.5621C2.32462 16.2435 2.31012 15.8478 2.31012 12.5122C2.31012 9.17652 2.32462 8.77609 2.38338 7.46243C2.43699 6.24149 2.64207 5.58218 2.813 5.14264C3.01331 4.60047 3.33075 4.10732 3.75083 3.7067C4.15603 3.29158 4.64441 2.97414 5.18658 2.77402C5.62612 2.60309 6.29039 2.39801 7.50637 2.34421C8.82498 2.28564 9.22065 2.27095 12.5561 2.27095C15.8967 2.27095 16.2922 2.28564 17.606 2.34421C18.827 2.39801 19.4863 2.60309 19.9258 2.77402C20.4678 2.97414 20.9611 3.29158 21.3616 3.7067C21.7767 4.11209 22.0941 4.60047 22.2944 5.14264C22.4654 5.58218 22.6704 6.24626 22.7242 7.46243C22.7828 8.78105 22.7975 9.17652 22.7975 12.5122C22.7975 15.8478 22.7828 16.2385 22.7242 17.5571Z"/><path d="M12.5464 6.08026C9.00092 6.08026 6.12427 8.95673 6.12427 12.5024C6.12427 16.0481 9.00092 18.9246 12.5464 18.9246C16.0921 18.9246 18.9686 16.0481 18.9686 12.5024C18.9686 8.95673 16.0921 6.08026 12.5464 6.08026ZM12.5464 16.6683C10.2463 16.6683 8.38053 14.8028 8.38053 12.5024C8.38053 10.2021 10.2463 8.33653 12.5464 8.33653C14.8468 8.33653 16.7123 10.2021 16.7123 12.5024C16.7123 14.8028 14.8468 16.6683 12.5464 16.6683Z"/><path d="M20.7219 5.82637C20.7219 6.65432 20.0506 7.32565 19.2224 7.32565C18.3945 7.32565 17.7231 6.65432 17.7231 5.82637C17.7231 4.99823 18.3945 4.32709 19.2224 4.32709C20.0506 4.32709 20.7219 4.99823 20.7219 5.82637Z"/></symbol><symbol xmlns="http://www.w3.org/2000/svg" id="discord" viewBox="0 0 25 25"><path d="M3.72913 22.0792H18.5823L17.8729 19.7823L19.5698 21.2385L21.125 22.6323L23.9583 25V2.57812C23.8875 1.18437 22.6875 0 21.2 0L3.73433 0.003125C2.24788 0.003125 1.04163 1.18958 1.04163 2.58333V19.5C1.04163 20.9698 2.24579 22.0792 3.72913 22.0792ZM14.7166 5.91979L14.6823 5.93229L14.6948 5.91979H14.7166ZM6.76767 7.24167C8.67704 5.85208 10.4468 5.91875 10.4468 5.91875L10.5895 6.05937C8.25309 6.61667 7.19371 7.66042 7.19371 7.66042C7.19371 7.66042 7.47704 7.52187 7.97184 7.31042C11.1187 6.07292 14.5552 6.1625 17.7364 7.72917C17.7364 7.72917 16.675 6.75312 14.4823 6.12812L14.676 5.9375C14.9791 5.93854 16.5833 5.99479 18.3 7.25C18.3 7.25 20.2208 10.5312 20.2208 14.5625C20.1573 14.4854 19.0291 16.2979 16.126 16.3604C16.126 16.3604 15.6343 15.8042 15.2843 15.3187C16.9823 14.8313 17.6177 13.8562 17.6177 13.8562C17.0604 14.2073 16.552 14.4156 16.1395 14.624C15.5052 14.9031 14.8698 15.0406 14.2354 15.1812C11.2312 15.6687 9.54475 14.8531 7.951 14.2062L7.40621 13.9292C7.40621 13.9292 8.04059 14.9042 9.67079 15.3917C9.24267 15.8802 8.81871 16.4354 8.81871 16.4354C5.91663 16.3667 4.85829 14.5542 4.85829 14.5542C4.85829 10.5167 6.76767 7.24167 6.76767 7.24167Z"/><path d="M14.9041 13.3036C15.6447 13.3036 16.2479 12.6786 16.2479 11.9077C16.2479 11.1421 15.6479 10.5171 14.9041 10.5171V10.5202C14.1666 10.5202 13.5624 11.1431 13.5604 11.914C13.5604 12.6786 14.1635 13.3036 14.9041 13.3036Z"/><path d="M10.0937 13.3036C10.8344 13.3036 11.4375 12.6786 11.4375 11.9077C11.4375 11.1421 10.8385 10.5171 10.0979 10.5171L10.0937 10.5202C9.35312 10.5202 8.75 11.1431 8.75 11.914C8.75 12.6786 9.35312 13.3036 10.0937 13.3036Z"/></symbol><symbol xmlns="http://www.w3.org/2000/svg" id="telegram" viewBox="0 0 25 25"><path d="M9.80932 15.8135L9.39578 21.6302C9.98744 21.6302 10.2437 21.376 10.551 21.0708L13.3249 18.4198L19.0729 22.6291C20.127 23.2166 20.8697 22.9073 21.1541 21.6594L24.927 3.98018L24.9281 3.97914C25.2624 2.42081 24.3645 1.81143 23.3374 2.19372L1.16036 10.6844C-0.353184 11.2719 -0.330267 12.1156 0.903066 12.4979L6.57286 14.2614L19.7426 6.02081C20.3624 5.61039 20.926 5.83748 20.4624 6.24789L9.80932 15.8135Z"/></symbol><symbol xmlns="http://www.w3.org/2000/svg" id="twitter" viewBox="0 0 25 25"><path d="M25 4.74844C24.0703 5.15625 23.0797 5.42656 22.0469 5.55781C23.1094 4.92344 23.9203 3.92656 24.3016 2.725C23.3109 3.31562 22.2172 3.73281 21.0516 3.96563C20.1109 2.96406 18.7703 2.34375 17.3078 2.34375C14.4703 2.34375 12.1859 4.64688 12.1859 7.47031C12.1859 7.87656 12.2203 8.26719 12.3047 8.63906C8.04375 8.43125 4.27344 6.38906 1.74062 3.27813C1.29844 4.04531 1.03906 4.92344 1.03906 5.86875C1.03906 7.64375 1.95312 9.21719 3.31562 10.1281C2.49219 10.1125 1.68437 9.87344 1 9.49688C1 9.5125 1 9.53281 1 9.55312C1 12.0437 2.77656 14.1125 5.10625 14.5891C4.68906 14.7031 4.23438 14.7578 3.7625 14.7578C3.43438 14.7578 3.10312 14.7391 2.79219 14.6703C3.45625 16.7 5.34063 18.1922 7.58125 18.2406C5.8375 19.6047 3.62344 20.4266 1.22656 20.4266C0.80625 20.4266 0.403125 20.4078 0 20.3563C2.27031 21.8203 4.96094 22.6562 7.8625 22.6562C17.2937 22.6562 22.45 14.8438 22.45 8.07187C22.45 7.84531 22.4422 7.62656 22.4312 7.40938C23.4484 6.6875 24.3031 5.78594 25 4.74844Z"/></symbol><symbol xmlns="http://www.w3.org/2000/svg" id="search" viewBox="0 0 24 24"><circle cx="11.767" cy="11.767" r="8.989" stroke-linecap="round" stroke-linejoin="round" stroke-width="1.5"/><path stroke-linecap="round" stroke-linejoin="round" stroke-width="1.5" d="M18.0183 18.4852L21.5423 22.0001"/></symbol><symbol xmlns="http://www.w3.org/2000/svg" id="arrow-left" viewBox="0 0 33 34"><path fill-rule="evenodd" stroke-linecap="round" stroke-linejoin="round" stroke-width="1.5" d="M16.5 1.58368C7.98663 1.58368 1.08329 8.48535 1.08329 17.0003C1.08329 25.5137 7.98663 32.417 16.5 32.417C25.0133 32.417 31.9166 25.5137 31.9166 17.0003C31.9166 8.48535 25.0133 1.58368 16.5 1.58368Z" clip-rule="evenodd"/><path stroke-linecap="round" stroke-linejoin="round" stroke-width="1.5" d="M18.9038 11.215L13.0938 17L18.9038 22.785"/></symbol><symbol xmlns="http://www.w3.org/2000/svg" id="arrow-right" viewBox="0 0 33 34"><path fill-rule="evenodd" stroke-linecap="round" stroke-linejoin="round" stroke-width="1.5" d="M16.5 32.4163C25.0133 32.4163 31.9166 25.5147 31.9166 16.9997C31.9166 8.48632 25.0133 1.58299 16.5 1.58299C7.98665 1.58299 1.08331 8.48632 1.08331 16.9997C1.08331 25.5147 7.98665 32.4163 16.5 32.4163Z" clip-rule="evenodd"/><path stroke-linecap="round" stroke-linejoin="round" stroke-width="1.5" d="M14.0961 22.785L19.9061 17L14.0961 11.215"/></symbol><symbol xmlns="http://www.w3.org/2000/svg" id="arrow-down" viewBox="0 0 25 24"><path fill="none" stroke-linecap="round" stroke-linejoin="round" stroke-width="1.5" d="M19.5 8.5L12.5 15.5L5.5 8.5"/></symbol></svg>